{
  "accessors": [
    {
      "bufferView": 2,
      "componentType": 5126,
      "count": 3778,
      "max": [0.942635178565979, 1.1038570404052734, 0.4157178997993469],
      "min": [-0.9426353573799133, -0.8189849257469177, -0.1443231850862503],
      "type": "VEC3"
    },
    {
      "bufferView": 2,
      "byteOffset": 45336,
      "componentType": 5126,
      "count": 3778,
      "max": [0.9997081756591797, 0.9921738505363464, 0.9999978542327881],
      "min": [-0.9997081160545349, -0.9992661476135254, -0.9971386194229126],
      "type": "VEC3"
    },
    {
      "bufferView": 1,
      "componentType": 5126,
      "count": 3778,
      "max": [0.7916668653488159, 1.000000238418579],
      "min": [0.0, 0.0],
      "type": "VEC2"
    },
    {
      "bufferView": 0,
      "componentType": 5125,
      "count": 22656,
      "type": "SCALAR"
    },
    {
      "bufferView": 2,
      "byteOffset": 90672,
      "componentType": 5126,
      "count": 65532,
      "max": [1.123473048210144, 1.1521707773208618, 1.1627960205078125],
      "min": [-1.1237131357192993, -0.9314228296279907, -1.15510892868042],
      "type": "VEC3"
    },
    {
      "bufferView": 2,
      "byteOffset": 877056,
      "componentType": 5126,
      "count": 65532,
      "max": [0.9985467791557312, 0.9999775886535645, 0.9999410510063171],
      "min": [-0.9985306262969971, -0.9987094402313232, -0.9999142289161682],
      "type": "VEC3"
    },
    {
      "bufferView": 0,
      "byteOffset": 90624,
      "componentType": 5125,
      "count": 369138,
      "type": "SCALAR"
    },
    {
      "bufferView": 2,
      "byteOffset": 1663440,
      "componentType": 5126,
      "count": 65532,
      "max": [1.5655642747879028, 0.00287894019857049, 1.0281649827957153],
      "min": [-1.5656615495681763, -3.021996021270752, -1.1086989641189575],
      "type": "VEC3"
    },
    {
      "bufferView": 2,
      "byteOffset": 2449824,
      "componentType": 5126,
      "count": 65532,
      "max": [0.9999930262565613, 0.9503911137580872, 0.9999691247940063],
      "min": [-0.9999954700469971, -0.9996267557144165, -0.9996762871742249],
      "type": "VEC3"
    },
    {
      "bufferView": 0,
      "byteOffset": 1567176,
      "componentType": 5125,
      "count": 344271,
      "type": "SCALAR"
    },
    {
      "bufferView": 2,
      "byteOffset": 3236208,
      "componentType": 5126,
      "count": 37193,
      "max": [1.5646331310272217, 1.1341512203216553, 1.1590155363082886],
      "min": [-1.5637377500534058, -3.032402992248535, -1.1478984355926514],
      "type": "VEC3"
    },
    {
      "bufferView": 2,
      "byteOffset": 3682524,
      "componentType": 5126,
      "count": 37193,
      "max": [0.9984554052352905, 0.9999775886535645, 0.9998195767402649],
      "min": [-0.9955669045448303, -0.9997535943984985, -0.9984578490257263],
      "type": "VEC3"
    },
    {
      "bufferView": 0,
      "byteOffset": 2944260,
      "componentType": 5125,
      "count": 78963,
      "type": "SCALAR"
    },
    {
      "bufferView": 2,
      "byteOffset": 4128840,
      "componentType": 5126,
      "count": 9204,
      "max": [0.9577301144599915, 1.1266602277755737, 0.43812939524650574],
      "min": [-0.9577301144599915, -0.7910745143890381, -0.16614209115505219],
      "type": "VEC3"
    },
    {
      "bufferView": 2,
      "byteOffset": 4239288,
      "componentType": 5126,
      "count": 9204,
      "max": [0.9940242171287537, 0.9985541105270386, 0.9950791597366333],
      "min": [-0.9940249919891357, -0.997146725654602, -0.9971637725830078],
      "type": "VEC3"
    },
    {
      "bufferView": 1,
      "byteOffset": 30224,
      "componentType": 5126,
      "count": 9204,
      "max": [1.0000001192092896, 1.0000001192092896],
      "min": [0.0, 0.0],
      "type": "VEC2"
    },
    {
      "bufferView": 0,
      "byteOffset": 3260112,
      "componentType": 5125,
      "count": 51456,
      "type": "SCALAR"
    }
  ],
  "asset": {
    "extras": {
      "author": "4145K4N (https://sketchfab.com/4145K4N)",
      "license": "SKETCHFAB Standard (https://sketchfab.com/licenses)",
      "source": "https://sketchfab.com/3d-models/wrap-around-sunglasses-41ac9c4f9cba4d2b919f4609ec84e33e",
      "title": "Wrap around sunglasses"
    },
    "generator": "Sketchfab-15.86.0",
    "version": "2.0"
  },
  "bufferViews": [
    {
      "buffer": 0,
      "byteLength": 3465936,
      "name": "floatBufferViews",
      "target": 34963
    },
    {
      "buffer": 0,
      "byteLength": 103856,
      "byteOffset": 3465936,
      "byteStride": 8,
      "name": "floatBufferViews",
      "target": 34962
    },
    {
      "buffer": 0,
      "byteLength": 4349736,
      "byteOffset": 3569792,
      "byteStride": 12,
      "name": "floatBufferViews",
      "target": 34962
    }
  ],
  "buffers": [
    {
      "byteLength": 7919528,
      "uri": "scene.bin"
    }
  ],
  "extensionsUsed": ["KHR_materials_clearcoat", "KHR_materials_transmission"],
  "materials": [
    {
      "doubleSided": true,
      "name": "headMesh__0",
      "pbrMetallicRoughness": {
        "baseColorFactor": [
          0.20594136762876553, 0.20594136762876553, 0.20594136762876553, 1.0
        ],
        "metallicFactor": 0.0,
        "roughnessFactor": 0.49828723287537635
      }
    },
    {
      "alphaMode": "BLEND",
      "doubleSided": true,
      "extensions": {
        "KHR_materials_clearcoat": {
          "clearcoatFactor": 1.0,
          "clearcoatRoughnessFactor": 0.04
        },
        "KHR_materials_transmission": {
          "transmissionFactor": 1.0
        }
      },
      "name": "Material.001",
      "pbrMetallicRoughness": {
        "baseColorFactor": [0.0, 0.0, 0.0, 0.25],
        "metallicFactor": 0.0,
        "roughnessFactor": 0.0
      }
    },
    {
      "doubleSided": true,
      "name": "Material.005",
      "pbrMetallicRoughness": {
        "baseColorFactor": [
          0.014139134381343963, 0.014139134381343963, 0.014139134381343963, 1.0
        ],
        "metallicFactor": 0.2118101693262303,
        "roughnessFactor": 0.0
      }
    }
  ],
  "meshes": [
    {
      "name": "BezierCircle_Material.001_0",
      "primitives": [
        {
          "attributes": {
            "NORMAL": 1,
            "POSITION": 0,
            "TEXCOORD_0": 2
          },
          "indices": 3,
          "material": 1,
          "mode": 4
        }
      ]
    },
    {
      "name": "headMesh__0",
      "primitives": [
        {
          "attributes": {
            "NORMAL": 5,
            "POSITION": 4
          },
          "indices": 6,
          "material": 0,
          "mode": 4
        }
      ]
    },
    {
      "name": "headMesh__0",
      "primitives": [
        {
          "attributes": {
            "NORMAL": 8,
            "POSITION": 7
          },
          "indices": 9,
          "material": 0,
          "mode": 4
        }
      ]
    },
    {
      "name": "headMesh__0",
      "primitives": [
        {
          "attributes": {
            "NORMAL": 11,
            "POSITION": 10
          },
          "indices": 12,
          "material": 0,
          "mode": 4
        }
      ]
    },
    {
      "name": "BezierCircle.001_Material.005_0",
      "primitives": [
        {
          "attributes": {
            "NORMAL": 14,
            "POSITION": 13,
            "TEXCOORD_0": 15
          },
          "indices": 16,
          "material": 2,
          "mode": 4
        }
      ]
    }
  ],
  "nodes": [
    {
      "children": [1],
      "matrix": [
        1.0, 0.0, 0.0, 0.0, 0.0, 2.220446049250313e-16, -1.0, 0.0, 0.0, 1.0,
        2.220446049250313e-16, 0.0, 0.0, 0.0, 0.0, 1.0
      ],
      "name": "Sketchfab_model"
    },
    {
      "children": [2],
      "matrix": [
        0.009999999776482582, 0.0, 0.0, 0.0, 0.0, 0.0, 0.009999999776482582,
        0.0, 0.0, -0.009999999776482582, 0.0, 0.0, 0.0, 0.0, 0.0, 1.0
      ],
      "name": "ed47bae2158b494d85ebc674ddbb472f.fbx"
    },
    {
      "children": [3, 6, 8, 10, 14],
      "name": "RootNode"
    },
    {
      "children": [4],
      "matrix": [
        -29.086477364379697, -5.518905590722295, -95.51711910171437, 0.0,
        56.63932069164076, 79.46722539115298, -21.839126361216156, 0.0,
        77.11007920637729, -60.452475336912016, -19.988344364310564, 0.0,
        407.6245422363281, 590.38623046875, -100.54539489746094, 1.0
      ],
      "name": "Light"
    },
    {
      "children": [5],
      "matrix": [
        1.0, 0.0, 0.0, 0.0, 0.0, 2.220446049250313e-16, 1.0, 0.0, 0.0, -1.0,
        2.220446049250313e-16, 0.0, 0.0, 0.0, 0.0, 1.0
      ],
      "name": "Object_4"
    },
    {
      "name": "Object_5"
    },
    {
      "children": [7],
      "matrix": [
        -65.1558127516791, -44.52713915455176, -61.417049289096546, 0.0,
        -32.401349332924404, 89.53957282709818, -30.5420854760369, 0.0,
        68.59207001076241, 8.666908837178815e-6, -72.76761921184274, 0.0,
        735.88916015625, 495.8309326171875, 692.5791015625, 1.0
      ],
      "name": "Camera"
    },
    {
      "name": "Object_7"
    },
    {
      "children": [9],
      "matrix": [
        98.73241206404906, 1.8420908993847567e-8, 1.7233808337043393, 0.0,
        -1.7125449944732218, -11.055993224635978, 98.11162742989167, 0.0,
        0.2546617016696759, -129.50815015108532, -14.58955628889052, 0.0, 0.0,
        1.9047317504882813, 4.642919540405273, 1.0
      ],
      "name": "BezierCircle"
    },
    {
      "mesh": 0,
      "name": "BezierCircle_Material.001_0"
    },
    {
      "children": [11, 12, 13],
      "matrix": [
        100.0, 0.0, 0.0, 0.0, 0.0, 99.99999999999972, -7.5497901264043296e-6,
        0.0, 0.0, 7.5497901264043296e-6, 99.99999999999972, 0.0, 0.0, 0.0, 0.0,
        1.0
      ],
      "name": "headMesh"
    },
    {
      "mesh": 1,
      "name": "headMesh__0"
    },
    {
      "mesh": 2,
      "name": "headMesh__0"
    },
    {
      "mesh": 3,
      "name": "headMesh__0"
    },
    {
      "children": [15],
      "matrix": [
        98.73241206404906, 1.8420908993847567e-8, 1.7233808337043393, 0.0,
        -1.7125449944732218, -11.055993224635978, 98.11162742989167, 0.0,
        0.2546617016696759, -129.50815015108532, -14.58955628889052, 0.0, 0.0,
        1.9047317504882813, 4.642919540405273, 1.0
      ],
      "name": "BezierCircle.001"
    },
    {
      "mesh": 4,
      "name": "BezierCircle.001_Material.005_0"
    }
  ],
  "scene": 0,
  "scenes": [
    {
      "name": "Sketchfab_Scene",
      "nodes": [0]
    }
  ]
}
